<svg xmlns="http://www.w3.org/2000/svg" width="20" height="20" viewBox="0 0 20 20">
  <g id="组_3884" data-name="组 3884" transform="translate(-3032)">
    <rect id="矩形_660" data-name="矩形 660" width="20" height="20" transform="translate(3032)" fill="rgba(255,255,255,0.01)"/>
    <g id="组_5071" data-name="组 5071" transform="translate(2970.879 -51.812)">
      <path id="路径_3294" data-name="路径 3294" d="M76.569,641.868H65.622A1.678,1.678,0,0,1,64,640.2v-2.889a.507.507,0,1,1,1.014,0V640.2a.628.628,0,0,0,.608.659h11a.664.664,0,0,0,.608-.659v-2.889a.507.507,0,1,1,1.014,0V640.2A1.722,1.722,0,0,1,76.569,641.868Z" transform="translate(0 -573.176)" fill="#636d7e"/>
      <path id="路径_3295" data-name="路径 3295" d="M480.507,65.55a.479.479,0,0,1-.507-.507v-9.6a.507.507,0,1,1,1.014,0v9.6A.508.508,0,0,1,480.507,65.55Z" transform="translate(-409.411 0)" fill="#636d7e"/>
      <path id="路径_3296" data-name="路径 3296" d="M275.8,497.108a.46.46,0,0,1-.355-.152l-3.294-3.294a.5.5,0,0,1,.71-.71l2.94,2.94,2.94-2.94a.5.5,0,0,1,.71.71l-3.294,3.294A.46.46,0,0,1,275.8,497.108Z" transform="translate(-204.706 -431.457)" fill="#636d7e"/>
    </g>
  </g>
</svg>
