<svg xmlns="http://www.w3.org/2000/svg" width="20" height="20" viewBox="0 0 20 20">
  <g id="组_3884" data-name="组 3884" transform="translate(-3032)">
    <rect id="矩形_660" data-name="矩形 660" width="20" height="20" transform="translate(3032)" fill="rgba(255,255,255,0.01)"/>
    <path id="路径_3202" data-name="路径 3202" d="M23.818,241.922a7.4,7.4,0,0,1,2.962.669,12.1,12.1,0,0,1,2.515,1.522,16.249,16.249,0,0,1,1.951,1.785,16.2,16.2,0,0,1-1.922,1.763A12.147,12.147,0,0,1,26.8,249.2a6.9,6.9,0,0,1-5.942.008,12.1,12.1,0,0,1-2.515-1.522A16.245,16.245,0,0,1,16.39,245.9a16.2,16.2,0,0,1,1.922-1.763,12.145,12.145,0,0,1,2.526-1.536,7.413,7.413,0,0,1,2.98-.676Zm0-.775c-4.671,0-8.458,4.75-8.458,4.75s3.787,4.75,8.458,4.75,8.458-4.75,8.458-4.75-3.787-4.75-8.458-4.75h0M23.8,244.08a1.724,1.724,0,1,1-1.724,1.724A1.726,1.726,0,0,1,23.8,244.08Zm0-.775a2.5,2.5,0,1,0,2.5,2.5,2.5,2.5,0,0,0-2.5-2.5h0" transform="translate(3018.182 -235.897)" fill="#636d7e" stroke="#646e7d" stroke-width="0.2"/>
  </g>
</svg>
